<?xml version="1.0" encoding="utf-8"?>
<!-- Generator: Adobe Illustrator 21.0.2, SVG Export Plug-In . SVG Version: 6.00 Build 0)  -->
<svg version="1.1" id="Layer_1" xmlns="http://www.w3.org/2000/svg" xmlns:xlink="http://www.w3.org/1999/xlink" x="0px" y="0px"
	 viewBox="0 0 120 120" style="enable-background:new 0 0 120 120;" xml:space="preserve">
<style type="text/css">
	.st0{fill:#FFFFFF;}
</style>
<g>
	<path class="st0" d="M60,6c29.7757034,0,54,24.2242947,54,54s-24.2242966,54-54,54S6,89.7757034,6,60S30.2242947,6,60,6 M60,0
		C26.8629112,0,0,26.8629112,0,60s26.8629112,60,60,60s60-26.862915,60-60S93.137085,0,60,0L60,0z"/>
</g>
<polygon class="st0" points="89,56 64,56 64,31 56,31 56,56 31,56 31,64 56,64 56,89 64,89 64,64 89,64 "/>
</svg>
